<svg width="24" height="35" viewBox="0 0 24 35" fill="none" xmlns="http://www.w3.org/2000/svg">
<path d="M21.3721 10.5711C21.0279 6.88584 18.0104 5.70804 14.2033 5.43108L14.1918 0.310199L11.2429 0.369125L11.2544 5.35512C10.4791 5.37043 9.68678 5.40238 8.89944 5.43459L8.88863 0.415481L5.94149 0.473917L5.95203 5.59342C5.31378 5.6199 4.68668 5.64502 4.07541 5.65745L4.07501 5.64144L0.00794969 5.72053L0.0162199 9.04972C0.0162199 9.04972 2.19368 8.96276 2.15762 9.00564C3.35186 8.98227 3.74238 9.70768 3.85712 10.3379L3.87041 16.1717C3.95273 16.1705 4.06025 16.172 4.1822 16.1874C4.08384 16.1895 3.97901 16.191 3.87064 16.1942L3.88822 24.3669C3.83688 24.7652 3.61736 25.4033 2.78279 25.4213C2.82075 25.4558 0.639319 25.4633 0.639319 25.4633L0.061641 29.1976L3.89921 29.1214C4.61338 29.1083 5.31604 29.1071 6.00605 29.0978L6.01901 34.2771L8.96466 34.2191L8.9529 29.0945C9.76182 29.0962 10.5443 29.0874 11.3087 29.0716L11.3189 34.1724L14.2678 34.1135L14.2569 28.9434C19.214 28.5444 22.6808 27.1555 23.1004 22.2256C23.4393 18.2561 21.672 16.523 18.8564 15.8644C20.5641 14.9102 21.6294 13.2676 21.3731 10.5712L21.3721 10.5708L21.3721 10.5711ZM17.2714 21.7273C17.2816 25.5978 11.0112 25.282 9.01265 25.3236L8.99801 18.4613C10.997 18.4223 17.2625 17.6902 17.2715 21.7273L17.2714 21.7273ZM15.878 12.0728C15.8851 15.594 10.6555 15.2869 8.99088 15.32L8.97713 9.09645C10.6418 9.06334 15.8695 8.40019 15.8782 12.0727L15.878 12.0728Z" fill="white"/>
</svg>
