<svg width="39" height="36" viewBox="0 0 39 36" fill="none" xmlns="http://www.w3.org/2000/svg">
<path fill-rule="evenodd" clip-rule="evenodd" d="M7.26299 1.20413L0.379131 16.1217C0.352936 16.1772 0.344635 16.2398 0.355442 16.3005C0.366249 16.3612 0.395597 16.4168 0.439194 16.459L19.0308 34.8386C19.0837 34.8909 19.154 34.92 19.2272 34.92C19.3003 34.92 19.3707 34.8909 19.4235 34.8386L38.0151 16.4602C38.0587 16.4179 38.0881 16.3624 38.0989 16.3017C38.1097 16.241 38.1014 16.1783 38.0752 16.1228L31.1913 1.20528C31.1691 1.15518 31.1334 1.11274 31.0884 1.08303C31.0435 1.05332 30.9911 1.0376 30.9377 1.03774H7.51882C7.46516 1.03705 7.41246 1.0524 7.36706 1.08192C7.32167 1.11144 7.28553 1.15389 7.26299 1.20413V1.20413V1.20413Z" fill="#50AF95"/>
<path fill-rule="evenodd" clip-rule="evenodd" d="M21.6157 17.654C21.4822 17.6643 20.7926 17.7068 19.2544 17.7068C18.0309 17.7068 17.1622 17.6689 16.8574 17.654C12.1291 17.4394 8.5999 16.5903 8.5999 15.5736C8.5999 14.5569 12.1291 13.7089 16.8574 13.4908V16.8083C17.1666 16.8312 18.052 16.8852 19.2755 16.8852C20.7437 16.8852 21.4789 16.822 21.6113 16.8094V13.4931C26.3295 13.71 29.851 14.5592 29.851 15.5736C29.851 16.588 26.3306 17.4371 21.6113 17.6528L21.6157 17.654ZM21.6157 13.15V10.1814H28.2004V5.65454H10.2728V10.1814H16.8563V13.1489C11.5052 13.4025 7.48096 14.4961 7.48096 15.8065C7.48096 17.117 11.5052 18.2094 16.8563 18.4641V27.9769H21.6146V18.4607C26.9535 18.2071 30.971 17.1147 30.971 15.8054C30.971 14.4961 26.9568 13.4036 21.6146 13.1489L21.6157 13.15Z" fill="white"/>
</svg>
